<svg width="59" height="59" viewBox="0 0 59 59" fill="none" xmlns="http://www.w3.org/2000/svg">
<path fill-rule="evenodd" clip-rule="evenodd" d="M10.3225 10.4085C9.55403 10.1383 8.712 10.5423 8.44181 11.3108C8.17162 12.0793 8.57558 12.9213 9.34409 13.1915L9.8578 13.3721C11.1708 13.8337 12.0336 14.1396 12.6686 14.4512C13.2649 14.7438 13.5278 14.9806 13.701 15.234C13.8785 15.4938 14.0156 15.8506 14.0929 16.5652C14.1739 17.3129 14.1759 18.2869 14.1759 19.7421V25.0947C14.1759 27.9513 14.2027 30.0111 14.4722 31.5849C14.76 33.265 15.3345 34.4679 16.4088 35.601C17.5767 36.8328 19.0572 37.3691 20.8198 37.6191C22.5077 37.8584 24.651 37.8584 27.2976 37.8583L37.9289 37.8583C39.3875 37.8584 40.6148 37.8584 41.6079 37.7369C42.6615 37.6079 43.6224 37.3261 44.4612 36.6425C45.3 35.959 45.77 35.0748 46.109 34.0689C46.4285 33.1207 46.6762 31.9188 46.9706 30.4901L47.9716 25.6338L47.9734 25.6248L47.9939 25.5219C48.3178 23.8997 48.5902 22.535 48.658 21.4374C48.7291 20.2845 48.5979 19.1478 47.8469 18.1716C47.3848 17.5709 46.7352 17.2308 46.1442 17.0232C45.5414 16.8114 44.8599 16.6889 44.172 16.612C42.8208 16.4609 41.1793 16.461 39.5694 16.461L17.0468 16.461C17.0404 16.3887 17.0334 16.3176 17.0258 16.2477C16.9201 15.2715 16.6912 14.3812 16.1366 13.5697C15.5777 12.7518 14.8346 12.228 13.968 11.8028C13.1576 11.4051 12.1278 11.0431 10.9153 10.6169L10.3225 10.4085ZM17.1259 19.411H39.508C41.1922 19.411 42.6745 19.413 43.8443 19.5437C44.4256 19.6087 44.8606 19.699 45.1662 19.8064C45.4161 19.8942 45.5006 19.9659 45.5129 19.9762C45.5134 19.9767 45.5126 19.976 45.5129 19.9762C45.6335 20.1363 45.7647 20.4268 45.7136 21.2557C45.6597 22.128 45.4307 23.2928 45.0813 25.043L45.0805 25.0474L44.0994 29.8069C43.7821 31.3465 43.5686 32.3699 43.3135 33.1268C43.0713 33.8454 42.8439 34.155 42.5976 34.3557C42.3514 34.5564 42.0022 34.7166 41.2496 34.8087C40.4567 34.9057 39.4113 34.9083 37.8394 34.9083H27.4103C24.624 34.9083 22.6906 34.9048 21.234 34.6983C19.8282 34.4989 19.0855 34.1366 18.5495 33.5713C17.9199 32.9072 17.5803 32.2569 17.3799 31.0868C17.1613 29.8104 17.1259 28.0231 17.1259 25.0947L17.1259 19.411Z" fill="#1C274C"/>
<path fill-rule="evenodd" clip-rule="evenodd" d="M20.65 48.675C18.2061 48.675 16.225 46.6938 16.225 44.25C16.225 41.8061 18.2061 39.825 20.65 39.825C23.0938 39.825 25.075 41.8061 25.075 44.25C25.075 46.6938 23.0938 48.675 20.65 48.675ZM19.175 44.25C19.175 45.0646 19.8354 45.725 20.65 45.725C21.4646 45.725 22.125 45.0646 22.125 44.25C22.125 43.4354 21.4646 42.775 20.65 42.775C19.8354 42.775 19.175 43.4354 19.175 44.25Z" fill="#1C274C"/>
<path fill-rule="evenodd" clip-rule="evenodd" d="M38.35 48.6751C35.9061 48.6751 33.925 46.694 33.925 44.2501C33.925 41.8063 35.9061 39.8251 38.35 39.8251C40.7938 39.8251 42.775 41.8063 42.775 44.2501C42.775 46.694 40.7938 48.6751 38.35 48.6751ZM36.875 44.2501C36.875 45.0648 37.5354 45.7251 38.35 45.7251C39.1646 45.7251 39.825 45.0648 39.825 44.2501C39.825 43.4355 39.1646 42.7751 38.35 42.7751C37.5354 42.7751 36.875 43.4355 36.875 44.2501Z" fill="#1C274C"/>
</svg>
