<svg width="59" height="59" viewBox="0 0 59 59" fill="none" xmlns="http://www.w3.org/2000/svg">
<path fill-rule="evenodd" clip-rule="evenodd" d="M16.9612 14.6009C13.6986 16.0923 11.3083 19.6396 11.3083 23.8696C11.3083 28.1912 13.0768 31.5222 15.612 34.3769C17.7014 36.7297 20.2308 38.6797 22.6976 40.5814C23.2834 41.0331 23.8658 41.4821 24.4379 41.933C25.4724 42.7486 26.3953 43.4644 27.2848 43.9842C28.1748 44.5042 28.8911 44.7417 29.5 44.7417C30.1089 44.7417 30.8253 44.5042 31.7152 43.9842C32.6047 43.4644 33.5276 42.7486 34.5621 41.933C35.1342 41.4821 35.7166 41.0331 36.3025 40.5814C38.7692 38.6797 41.2986 36.7297 43.388 34.3769C45.9232 31.5222 47.6917 28.1912 47.6917 23.8696C47.6917 19.6396 45.3014 16.0923 42.0388 14.6009C38.8691 13.152 34.6101 13.5357 30.5627 17.7408C30.2847 18.0297 29.901 18.1929 29.5 18.1929C29.099 18.1929 28.7153 18.0297 28.4373 17.7408C24.3899 13.5357 20.1309 13.152 16.9612 14.6009ZM29.5 14.669C24.953 10.6008 19.8613 10.0317 15.7348 11.9179C11.3766 13.9101 8.35834 18.5359 8.35834 23.8696C8.35834 29.1118 10.5423 33.1109 13.4062 36.3358C15.6997 38.9182 18.5068 41.0797 20.986 42.9886C21.548 43.4213 22.0931 43.841 22.6116 44.2498C23.619 45.0439 24.7004 45.8907 25.7964 46.5312C26.8919 47.1713 28.1422 47.6917 29.5 47.6917C30.8578 47.6917 32.1081 47.1713 33.2036 46.5312C34.2996 45.8907 35.381 45.0439 36.3884 44.2498C36.9069 43.841 37.4521 43.4213 38.014 42.9885C40.4932 41.0796 43.3004 38.9182 45.5938 36.3358C48.4577 33.1109 50.6417 29.1118 50.6417 23.8696C50.6417 18.5359 47.6234 13.9101 43.2652 11.9179C39.1387 10.0317 34.047 10.6008 29.5 14.669Z" fill="#1C274C"/>
</svg>
