<svg xmlns="http://www.w3.org/2000/svg" width="107mm" height="66mm" viewBox="0 0 107 66"><defs><path id="a" d="M318.934 1019.261h268.634v84.57H318.934z"/></defs><path d="M63.547 129.943c-3.693 6.523-8.388 6.843-9.454 9.447-3.671 12.114 32.127 13.958 44.59 11.241l6.537-2.054c-7.752.837-60.374.328-42.566-12.764 2.079-2.087 1.65-3.917 1.366-4.939z" style="fill:#000;fill-opacity:1;stroke:none;stroke-width:.265;stroke-linecap:butt;stroke-linejoin:miter;stroke-miterlimit:4;stroke-dasharray:none;stroke-opacity:1;paint-order:normal" transform="translate(-50.998 -107.699)"/><path d="M67.29 111.597c-16.292 40.02 43.185 35.693 71.67 27.045 3.843-1.168 8.304-2.9 9.952.37.466 2.019-2.126 3.22-3.709 4.222-11.884 5.224-20.881 5.353-32.466 6.358 46.392 6.615 48.542-20.56 33.514-18.229-.55.15-8.091 2.033-16.964 4.496-27.64 7.672-65.673 6.673-61.997-24.262z" style="fill:#a08585;fill-opacity:1;stroke:none;stroke-width:.265;stroke-linecap:butt;stroke-linejoin:miter;stroke-miterlimit:4;stroke-dasharray:none;stroke-opacity:1;paint-order:normal" transform="translate(-50.998 -107.699)"/><path d="M68.405 112.489c1.728 11.143 14.086 14.89 23.742 2.22.97-.856 1.98-1.667 4.743-.536 18.843 12.48 33.752 14.528 49.37 14.344-1.395-.726-14.255-1.453-25.868-6.302-9.483-3.958-18.167-11.476-23.912-13.812-12.888-3.714-10.188 24.188-28.075 4.086z" style="fill:#000;fill-opacity:1;stroke:none;stroke-width:.264583px;stroke-linecap:butt;stroke-linejoin:miter;stroke-opacity:1" transform="translate(-50.998 -107.699)"/><path d="M107.105 122.272c1.46 5.54-4.44 13.74-12.673 13.537 4.452-1.995 10.825-8.148 12.673-13.537z" style="fill:#000;fill-opacity:1;stroke:#000;stroke-width:.25;stroke-linecap:butt;stroke-linejoin:miter;stroke-miterlimit:4;stroke-dasharray:none;stroke-opacity:1" transform="translate(-50.998 -107.699)"/><path d="M115.276 125.54c2.082 4.109-2.278 11.204-8.657 11.581 2.953-1.898 7.923-7.55 8.657-11.58z" style="fill:#000;fill-opacity:1;stroke:#000;stroke-width:.184163;stroke-linecap:butt;stroke-linejoin:miter;stroke-miterlimit:4;stroke-dasharray:none;stroke-opacity:1" transform="translate(-50.998 -107.699)"/><path d="M99.245 117.296c.14 13.79-12.487 15.598-18.623 15.754 7.878-2.785 16.2-9.713 18.623-15.754z" style="fill:#000;fill-opacity:1;stroke:#000;stroke-width:.25;stroke-linecap:butt;stroke-linejoin:miter;stroke-miterlimit:4;stroke-dasharray:none;stroke-opacity:1" transform="translate(-50.998 -107.699)"/><path d="M402.63 577.148c-74.741.625-143.6 7.595-209.228 18.444 73.388-5.15 157.904-8.048 237.301-8.19-7.186-4.756-21.821-10.687-28.072-10.254z" style="fill:#ff3b00;fill-opacity:1;stroke:none;stroke-width:.999999px;stroke-linecap:butt;stroke-linejoin:miter;stroke-opacity:1" transform="matrix(.26458 0 0 .26458 -50.998 -107.699)"/><path d="M118.52 152.616c.63.886 3.932 2.458 5.175 2.707 10.952.114 22.412.553 33.793 1.025-12.813-2.16-26.293-3.361-38.968-3.732z" style="fill:#ff3b00;fill-opacity:1;stroke:none;stroke-width:.264583px;stroke-linecap:butt;stroke-linejoin:miter;stroke-opacity:1" transform="translate(-50.998 -107.699)"/><text xml:space="preserve" style="font-style:normal;font-variant:normal;font-weight:400;font-stretch:normal;font-size:39.8823px;line-height:1.25;font-family:Helvetica;-inkscape-font-specification:Helvetica;white-space:pre;shape-inside:url(#a);fill:#000;fill-opacity:1;stroke:none" transform="matrix(.5042 0 0 .5042 -142.103 -467.39)"><tspan x="318.934" y="1056.763">KERC</tspan></text><path d="M99.457 151.704c2.497-.83 6.198-2.734 7.49-2.492 13.937 3.76 16.42 11.556 30.382 9.514a2.66 2.66 0 0 1 0 1.658l-9.27 11.29h9.287c.16.658.084 1.072-.017 1.73h-11.5c-.233-.542-.294-1.141 0-1.859l9.094-11.029c-9.246 2.494-18.845-6.657-26.806-8.684-3.077-.783-4.981-.618-8.659-.129z" style="opacity:1;fill:#000;fill-opacity:1;stroke:none;stroke-width:.264583px;stroke-linecap:butt;stroke-linejoin:miter;stroke-opacity:1" transform="translate(-50.998 -107.699)"/></svg>