<?xml version="1.0" standalone="no"?>
<!DOCTYPE svg PUBLIC "-//W3C//DTD SVG 20010904//EN"
 "http://www.w3.org/TR/2001/REC-SVG-20010904/DTD/svg10.dtd">
<svg version="1.0" xmlns="http://www.w3.org/2000/svg"
 width="32.000000pt" height="32.000000pt" viewBox="0 0 32.000000 32.000000"
 preserveAspectRatio="xMidYMid meet">

<g transform="translate(0.000000,32.000000) scale(0.100000,-0.100000)"
fill="#000000" stroke="none">
<path d="M112 255 c-20 -41 -25 -45 -57 -45 -31 0 -35 -3 -35 -25 l0 -25 140
0 140 0 0 25 c0 22 -4 25 -35 25 -32 0 -37 4 -57 45 -12 25 -26 45 -30 45 -12
0 -10 -7 12 -50 l20 -40 -50 0 -50 0 20 40 c22 43 24 50 12 50 -4 0 -18 -20
-30 -45z"/>
<path d="M36 113 c18 -95 8 -88 124 -88 116 0 106 -7 124 88 l7 37 -131 0
-131 0 7 -37z m58 -43 c5 -23 4 -30 -2 -20 -6 8 -13 31 -16 50 -5 23 -4 30 2
20 6 -8 13 -31 16 -50z m44 -10 l0 -25 -8 25 c-4 14 -8 36 -8 50 l0 25 8 -25
c4 -14 8 -36 8 -50z m57 20 c-4 -23 -9 -39 -12 -36 -3 2 -2 23 2 46 4 23 9 39
12 36 3 -2 2 -23 -2 -46z m45 0 c-6 -23 -14 -40 -16 -37 -3 3 0 24 6 47 6 23
14 40 16 37 3 -3 0 -24 -6 -47z"/>
</g>
</svg>
